# xmcd
#
# Track frame offsets:
#	150
#	16663
#	35411
#	54427
#	78474
#	94807
#	110114
#	125836
#	143390
#	162367
#	197780
#	211419
#	228572
#	246882
#	265373
#	282312
#	300184
#	319046
#
# Disc length: 4440
#
# Revision: 2
# Processed by: cddbd v1.5.1PL0 Copyright (c) Steve Scherf et al.
# Submitted via: audiograbber 1.83.01
# Normalized: r1:DSETVAR1
#
DISCID=f9115612
DTITLE=Various Artist - Power hits 50
DYEAR=2001
DGENRE=Pop
TTITLE0=Litza - Para poly
TTITLE1=B floor hilary costa - Eu vida de esperar
TTITLE2=Wyclef jean - Perfect gentleman
TTITLE3=De java - I cant stop
TTITLE4=Five - Let's dance
TTITLE5=Disco tex - I can cast the spell
TTITLE6=No angels - Rivers of joy
TTITLE7=2 pace, shinead soul - Letter to my unbourne
TTITLE8=Dane bowers - Another lover
TTITLE9=Espirito - Canto de orfeo
TTITLE10=Safri duo - Samba adagio
TTITLE11=Music instructor - Play my music
TTITLE12=Sisqo - Dance for me
TTITLE13=Cerone - Give me love
TTITLE14=Busterfunk - Run baby run
TTITLE15=Sky - You
TTITLE16=Modjo - What i mean
TTITLE17=Cesaria Evora - Nutridinha
EXTD=
EXTT0=
EXTT1=
EXTT2=
EXTT3=
EXTT4=
EXTT5=
EXTT6=
EXTT7=
EXTT8=
EXTT9=
EXTT10=
EXTT11=
EXTT12=
EXTT13=
EXTT14=
EXTT15=
EXTT16=
EXTT17=
PLAYORDER=
